<svg xmlns="http://www.w3.org/2000/svg" viewBox="0 0 64 64">
  <rect width="64" height="64" rx="14" fill="#2563eb" />
  <g transform="translate(13.8 12) scale(0.0072)" fill="#fff">
    <path d="M5153,1620.87q-201.63-523.47-546.5-876.24Q4261,392,3803.82,213.28,3346.14,35.32,2834.51,35q-511.64,0-969.32,178.28-457.68,178.91-802.71,531.35-345,353.08-546.51,876.24-202.1,523.47-201.62,1213.54Q314.35,3525,516,4052.05t546.51,880q345,353.09,802.71,531c66.82,26.08,134.64,49,203.24,69.33v-400c0-30.18,6.4-56.17,17.18-78.32a202.4,202.4,0,0,1-3.54-24.67c-19.42-7.72-38.89-15.34-57.85-23.9q-360.66-162.81-616.55-465.1-256.05-302.43-395.37-733-139.62-430.23-139.78-973.1,0-542.4,139.78-973.1,139.15-430.24,395.37-733,256-302.43,616.55-461.31,360.66-158.55,810.29-159,449.63,0,810.29,159t616.55,461.31q256,302.45,395.36,733,139.62,430.21,139.78,973.1,0,542.87-139.78,973.1-139.62,430.71-395.36,733-256.07,302.44-616.55,465.1c-50.61,22.84-103,42.4-156.25,60.47a186.41,186.41,0,0,1,9.44,59.43c.44,144.83,2.74,289.62,2.46,434.42a2579.89,2579.89,0,0,0,303.37-96.8q457.21-178,802.72-531,344.56-352.6,546.5-880,201.63-527.27,201.63-1217.64Q5354.67,2144.34,5153,1620.87Z" transform="translate(-314.35 -35)"/>
    <path d="M2600.44,3140.92V2983.38s0-119.72,107.12-119.72h198.86c103,0,97.31,125.42,97.31,125.42v177s11.5,2415.76,11.83,2451.24c-215.18,26.34-404.51,0-404.51,0Z" transform="translate(-314.35 -35)"/>
    <path d="M1852.79,4112.83V3955.29s0-119.73,107.13-119.73h198.86c103,0,97.3,125.42,97.3,125.42v177s-4.53,1398.38-3.89,1436.1c-213.24-37.25-256.49-65-399.4-116.63Z" transform="translate(-314.35 -35)"/>
    <path d="M3392.59,2038.15V1880.48s0-119.83,107.12-119.83h198.87c103,0,97.3,125.53,97.3,125.53v177.2s25.2,3335.91,25.2,3392.5c-181,78.91-421.31,131.63-421.31,131.63C3399.77,5519.82,3392.59,2038.15,3392.59,2038.15Z" transform="translate(-314.35 -35)"/>
  </g>
</svg>
